<?xml version="1.0" encoding="UTF-8" standalone="no"?>
<!-- Created with Inkscape (http://www.inkscape.org/) -->

<svg version="1.1" id="svg57" {...props}>
  <defs id="defs61">
    <clipPath clipPathUnits="userSpaceOnUse" id="clipPath71">
      <path d="M 0,612 H 792 V 0 H 0 Z" id="path69" />
    </clipPath>
  </defs>
  <g id="layer1">
    <circle style="fill:#085796;fill-rule:evenodd;stroke-width:1.0268;fill-opacity:1" id="circle_container" cx="527.48792" cy="407.34299" r="402.74396" />
  </g>
  <g id="g63" transform="matrix(1.3333333,0,0,-1.3333333,0,816)">
    <g id="g77" transform="translate(395.61545,310.751)" />
    <g id="circle_top_1" transform="translate(395.61595,231.47165)">
      <path d="m 0,0 c -86.271,0 -156.208,69.936 -156.208,156.206 0,86.271 69.937,156.207 156.208,156.207 86.271,0 156.206,-69.936 156.206,-156.207 C 156.206,69.936 86.271,0 0,0 m 0,332.785 c -97.522,0 -176.579,-79.057 -176.579,-176.579 0,-97.522 79.057,-176.579 176.579,-176.579 97.521,0 176.579,79.057 176.579,176.579 0,97.522 -79.058,176.579 -176.579,176.579" style="fill:#bcbec0;fill-opacity:1;fill-rule:nonzero;stroke:none" id="path75" />
    </g>
    <g id="circle_bottom" transform="matrix(0.42235485,0,0,0.42235485,395.61595,57.333522)">
      <g id="g608">
        <path d="m 0,0 c -86.271,0 -156.208,69.936 -156.208,156.206 0,86.271 69.937,156.207 156.208,156.207 86.271,0 156.206,-69.936 156.206,-156.207 C 156.206,69.936 86.271,0 0,0 m 0,332.785 c -97.522,0 -176.579,-79.057 -176.579,-176.579 0,-97.522 79.057,-176.579 176.579,-176.579 97.521,0 176.579,79.057 176.579,176.579 0,97.522 -79.058,176.579 -176.579,176.579" style="fill:#bcbec0;fill-opacity:1;fill-rule:nonzero;stroke:none" id="path75-7" />
      </g>
    </g>
    <path d="m 395.61545,286.72555 c -55.754,0 -100.952,45.198 -100.952,100.953 0,55.754 45.198,100.951 100.952,100.951 55.754,0 100.953,-45.197 100.953,-100.951 0,-55.755 -45.199,-100.953 -100.953,-100.953 m 0,222.318 c -67.028,0 -121.365,-54.337 -121.365,-121.365 0,-67.029 54.337,-121.366 121.365,-121.366 67.029,0 121.366,54.337 121.366,121.366 0,67.028 -54.337,121.365 -121.366,121.365" style="fill:#1b75bc;fill-opacity:1;fill-rule:nonzero;stroke:none" id="circle_top_2" />
    <g id="circle_top_3" transform="translate(487.85195,387.67765)">
      <path d="m 0,0 c 0,-50.94 -41.295,-92.236 -92.235,-92.236 -50.941,0 -92.237,41.296 -92.237,92.236 0,50.94 41.296,92.236 92.237,92.236 C -41.295,92.236 0,50.94 0,0" style="fill:#1b75bc;fill-opacity:1;fill-rule:nonzero;stroke:none" id="path83" />
    </g>
  </g>
</svg>
